<?xml version="1.0" encoding="iso-8859-1"?>
<!-- Generator: Adobe Illustrator 19.0.0, SVG Export Plug-In . SVG Version: 6.00 Build 0)  -->
<svg version="1.1" id="Capa_1" xmlns="http://www.w3.org/2000/svg" xmlns:xlink="http://www.w3.org/1999/xlink" x="0px" y="0px"
	 viewBox="0 0 512 512" style="enable-background:new 0 0 512 512;" xml:space="preserve">
<circle style="fill:#44C4FC;" cx="256" cy="256" r="256"/>
<path style="fill:#29ACE5;" d="M512,256c0-10.491-0.646-20.83-1.872-30.99l-99.507-99.507l-29.682,48.451l-66.564-66.329L78.25,361
	l149.253,149.413C236.861,511.449,246.365,512,256,512C397.385,512,512,397.385,512,256z"/>
<rect id="SVGCleanerId_0" x="101.38" y="125.5" style="fill:#37474F;" width="309.24" height="215.99"/>
<g>
	<rect id="SVGCleanerId_0_1_" x="101.38" y="125.5" style="fill:#37474F;" width="309.24" height="215.99"/>
</g>
<rect x="255.95" y="125.5" style="fill:#263238;" width="154.67" height="215.99"/>
<rect id="SVGCleanerId_1" x="119.3" y="141.78" style="fill:#E0F4FD;" width="273.4" height="183.45"/>
<g>
	<rect id="SVGCleanerId_1_1_" x="119.3" y="141.78" style="fill:#E0F4FD;" width="273.4" height="183.45"/>
</g>
<rect x="255.95" y="141.78" style="fill:#CED7DB;" width="136.75" height="183.45"/>
<rect id="SVGCleanerId_2" x="78" y="319.67" style="fill:#455A64;" width="356" height="41.33"/>
<g>
	<rect id="SVGCleanerId_2_1_" x="78" y="319.67" style="fill:#455A64;" width="356" height="41.33"/>
</g>
<rect x="255.95" y="319.67" style="fill:#37474F;" width="178.05" height="41.33"/>
<path style="fill:#F94616;" d="M256.784,76.862c-57.987,0-104.995,47.008-104.995,104.995c0,29.48,12.155,56.116,31.72,75.187
	l-20.602,29.808h93.878c57.987,0,104.995-47.008,104.995-104.995S314.771,76.862,256.784,76.862z"/>
<path style="fill:#DB2C09;" d="M256.784,76.862c-0.277,0-0.552,0.008-0.828,0.01v209.979h0.828
	c57.987,0,104.995-47.008,104.995-104.995C361.779,123.87,314.771,76.862,256.784,76.862z"/>
<path style="fill:#FFFFFF;" d="M264.284,208.696h-15v-19.831c0-9.391,5.287-18.043,13.47-22.041
	c4.927-2.407,7.923-7.509,7.636-12.997c-0.359-6.853-6.008-12.502-12.86-12.861c-3.792-0.201-7.384,1.122-10.121,3.72
	c-2.74,2.6-4.249,6.111-4.249,9.886h-15c0-7.816,3.252-15.385,8.924-20.767c5.751-5.458,13.291-8.234,21.231-7.818
	c14.415,0.756,26.299,12.64,27.054,27.055c0.604,11.507-5.688,22.207-16.028,27.26c-3.071,1.501-5.056,4.862-5.056,8.564v19.83
	H264.284z"/>
<path style="fill:#E0E0E0;" d="M285.368,153.041c-0.755-14.415-12.639-26.299-27.054-27.055c-0.791-0.041-1.577-0.042-2.359-0.021
	v15.012c0.52-0.031,1.044-0.04,1.574-0.012c6.853,0.359,12.501,6.008,12.86,12.861c0.287,5.489-2.709,10.59-7.636,12.997
	c-2.58,1.261-4.87,2.985-6.799,5.048v36.824h8.329v-19.831c0-3.702,1.984-7.063,5.056-8.564
	C279.681,175.248,285.973,164.548,285.368,153.041z"/>
<circle style="fill:#FFFFFF;" cx="256.66" cy="226.7" r="10.5"/>
<path style="fill:#E0E0E0;" d="M256.659,216.196c-0.238,0-0.47,0.02-0.704,0.036v20.929c0.234,0.016,0.466,0.036,0.704,0.036
	c5.799,0,10.5-4.701,10.5-10.5C267.159,220.897,262.458,216.196,256.659,216.196z"/>
<g>
</g>
<g>
</g>
<g>
</g>
<g>
</g>
<g>
</g>
<g>
</g>
<g>
</g>
<g>
</g>
<g>
</g>
<g>
</g>
<g>
</g>
<g>
</g>
<g>
</g>
<g>
</g>
<g>
</g>
</svg>
