<?xml version="1.0" encoding="iso-8859-1"?>
<!-- Generator: Adobe Illustrator 19.0.0, SVG Export Plug-In . SVG Version: 6.00 Build 0)  -->
<svg version="1.1" id="Capa_1" xmlns="http://www.w3.org/2000/svg" xmlns:xlink="http://www.w3.org/1999/xlink" x="0px" y="0px"
	 viewBox="0 0 504.123 504.123" style="enable-background:new 0 0 504.123 504.123;" xml:space="preserve">
<circle style="fill:#FCBD5E;" cx="252.062" cy="252.062" r="252.062"/>
<path style="fill:#FFFFFF;" d="M434.806,144.935c2.363-7.089,3.938-14.966,3.938-22.843c0-36.234-29.145-66.166-66.166-66.166
	c-9.452,0-18.117,1.575-25.994,5.514C330.043,29.932,296.96,7.877,259.151,7.877c-44.898,0-81.92,29.932-94.523,70.105
	c-9.452-5.514-20.48-9.452-32.295-9.452c-33.871,0-61.44,27.569-61.44,61.44c0,4.726,0.788,9.452,1.575,13.391
	c-37.022,3.938-66.166,35.446-66.166,74.043c0,40.96,33.083,74.043,74.043,74.043H419.84c40.96,0,74.043-33.083,74.043-74.043
	C496.246,181.169,469.465,150.449,434.806,144.935z"/>
<path style="fill:#183651;" d="M422.203,300.111H81.92c-45.686,0-81.92-37.022-81.92-81.92c0-39.385,27.569-72.468,64.591-80.345
	c0-2.363,0-4.726,0-7.089c0-37.809,30.72-69.317,69.317-69.317c9.452,0,18.905,2.363,27.569,6.302
	c15.754-40.172,55.138-66.954,98.462-66.954c37.809,0,71.68,19.692,90.585,51.2c7.089-2.363,14.178-3.151,22.055-3.151
	c40.96,0,74.043,33.083,74.043,74.043c0,5.514-0.788,11.815-2.363,17.329c34.658,10.24,59.077,41.748,59.077,78.769
	C504.123,263.089,467.102,300.111,422.203,300.111z M133.908,77.194c-29.145,0-53.563,23.631-53.563,53.563
	c0,3.938,0.788,7.877,1.575,11.815c0.788,2.363,0,4.726-1.575,6.302c-1.575,1.575-3.151,3.151-5.514,3.151
	c-33.871,3.938-59.077,32.295-59.077,66.166c0,37.022,29.932,66.166,66.166,66.166h339.495c37.022,0,66.166-29.932,66.166-66.166
	c0-32.295-22.843-59.865-55.138-65.378c-2.363-0.788-3.938-1.575-5.514-3.938c-0.788-2.363-1.575-4.726-0.788-6.302
	c2.363-6.302,3.938-13.391,3.938-20.48c0-32.295-25.994-58.289-58.289-58.289c-7.877,0-15.754,1.575-22.843,4.726
	c-3.938,1.575-7.877,0-10.24-3.938c-15.754-29.932-46.474-48.837-80.345-48.837c-40.172,0-75.618,26.782-86.646,64.591
	c-0.788,2.363-2.363,3.938-4.726,5.514c-2.363,0.788-4.726,0.788-7.089-0.788C153.6,79.557,143.36,77.194,133.908,77.194z"/>
<path style="fill:#2AA0DA;" d="M478.129,169.354c-11.028-12.603-25.994-22.055-43.323-25.206c2.363-7.089,3.938-14.966,3.938-22.843
	c0-36.234-29.145-66.166-66.166-66.166c-9.452,0-18.117,1.575-25.994,5.514C330.043,29.145,296.96,7.089,259.151,7.089
	c-44.898,0-81.92,29.932-94.523,70.105c-9.452-5.514-20.48-9.452-32.295-9.452c-33.871,0-61.44,27.569-61.44,61.44
	c0,4.726,0.788,9.452,1.575,13.391c-18.905,2.363-36.234,11.815-48.049,25.994"/>
<g>
	<path style="fill:#183651;" d="M25.994,177.231c-1.575,0-3.938-0.788-4.726-1.575c-3.151-3.151-3.938-7.877-0.788-11.028
		c11.815-13.391,27.569-22.843,44.898-26.782c0-2.363,0-4.726,0-7.089c0-37.809,30.72-69.317,69.317-69.317
		c9.452,0,18.905,2.363,27.569,6.302c15.754-40.172,55.138-66.954,98.462-66.954c37.809,0,71.68,19.692,90.585,51.2
		c7.089-2.363,14.178-3.151,22.055-3.151c40.96,0,74.043,33.083,74.043,74.043c0,5.514-0.788,11.815-2.363,17.329
		c14.966,4.726,29.145,13.391,39.385,25.206c3.151,3.151,2.363,8.665-0.788,11.028c-3.151,3.151-8.665,2.363-11.028-0.788
		c-10.24-11.815-23.631-19.692-38.597-22.055c-2.363-0.788-3.938-1.575-5.514-3.938c-0.788-2.363-1.575-4.726-0.788-6.302
		c2.363-6.302,3.938-13.391,3.938-20.48c0-32.295-25.994-58.289-58.289-58.289c-7.877,0-15.754,1.575-22.843,4.726
		c-3.938,1.575-7.877,0-10.24-3.938c-15.754-29.932-46.474-48.837-80.345-48.837c-40.172,0-75.618,26.782-86.646,64.591
		c-0.788,2.363-2.363,3.938-4.726,5.514c-2.363,0.788-4.726,0.788-7.089-0.788c-8.665-5.514-18.117-7.877-28.357-7.877
		c-29.145,0-53.563,23.631-53.563,53.563c0,3.938,0.788,7.877,1.575,11.815c0.788,2.363,0,4.726-1.575,6.302
		c-1.575,1.575-3.151,3.151-5.514,3.151c-16.542,1.575-31.508,10.24-42.535,22.843C29.932,176.443,28.357,177.231,25.994,177.231z"
		/>
	<rect x="185.895" y="112.64" style="fill:#183651;" width="15.754" height="15.754"/>
	<rect x="274.117" y="112.64" style="fill:#183651;" width="15.754" height="15.754"/>
	<rect x="318.228" y="112.64" style="fill:#183651;" width="15.754" height="15.754"/>
	<rect x="140.997" y="112.64" style="fill:#183651;" width="15.754" height="15.754"/>
	<rect x="230.006" y="112.64" style="fill:#183651;" width="15.754" height="15.754"/>
	<rect x="363.126" y="112.64" style="fill:#183651;" width="15.754" height="15.754"/>
</g>
<path style="fill:#E1E6E8;" d="M291.446,199.286H162.265c-13.391,0-23.631,10.24-23.631,23.631v249.698
	c0,13.391,10.24,23.631,23.631,23.631h178.806c13.391,0,23.631-10.24,23.631-23.631V273.329L291.446,199.286z"/>
<path style="fill:#183651;" d="M341.858,504.123H162.265c-17.329,0-31.508-14.178-31.508-31.508V222.917
	c0-17.329,14.178-31.508,31.508-31.508h128.394c2.363,0,3.938,0.788,5.514,2.363l74.043,74.043c1.575,1.575,2.363,3.151,2.363,5.514
	v199.286C373.366,489.945,359.188,504.123,341.858,504.123z M162.265,207.163c-8.665,0-15.754,7.089-15.754,15.754v249.698
	c0,8.665,7.089,15.754,15.754,15.754h178.806c8.665,0,15.754-7.089,15.754-15.754V276.48l-69.317-69.317H162.265z"/>
<g>
	<polygon style="fill:#FFFFFF;" points="170.142,464.738 170.142,230.794 291.446,230.794 333.982,273.329 333.982,464.738 	"/>
	<path style="fill:#FFFFFF;" d="M291.446,199.286v50.412c0,13.391,10.24,23.631,23.631,23.631h50.412L291.446,199.286z"/>
</g>
<g>
	<path style="fill:#183651;" d="M365.489,281.206h-50.412c-17.329,0-31.508-14.178-31.508-31.508v-50.412
		c0-3.151,1.575-6.302,4.726-7.089c3.151-1.575,6.302-0.788,8.665,1.575l74.043,74.043c2.363,2.363,3.151,5.514,1.575,8.665
		C371.003,278.843,368.64,281.206,365.489,281.206z M299.323,218.191v31.508c0,8.665,7.089,15.754,15.754,15.754h31.508
		L299.323,218.191z"/>
	<rect x="185.895" y="284.357" style="fill:#183651;" width="15.754" height="15.754"/>
	<rect x="221.342" y="284.357" style="fill:#183651;" width="15.754" height="15.754"/>
	<rect x="256.788" y="284.357" style="fill:#183651;" width="15.754" height="15.754"/>
	<rect x="185.895" y="332.406" style="fill:#183651;" width="131.545" height="15.754"/>
	<rect x="185.895" y="371.791" style="fill:#183651;" width="131.545" height="15.754"/>
	<rect x="185.895" y="411.963" style="fill:#183651;" width="99.249" height="15.754"/>
</g>
<g>
</g>
<g>
</g>
<g>
</g>
<g>
</g>
<g>
</g>
<g>
</g>
<g>
</g>
<g>
</g>
<g>
</g>
<g>
</g>
<g>
</g>
<g>
</g>
<g>
</g>
<g>
</g>
<g>
</g>
</svg>
